<?xml version="1.0" encoding="utf-8"?>
<!-- Generator: Adobe Illustrator 26.1.0, SVG Export Plug-In . SVG Version: 6.00 Build 0)  -->
<svg version="1.1" id="Shapes" xmlns="http://www.w3.org/2000/svg" xmlns:xlink="http://www.w3.org/1999/xlink" x="0px" y="0px"
	 viewBox="0 0 540.4 508.9" style="enable-background:new 0 0 540.4 508.9;" xml:space="preserve">
<style type="text/css">
	.st0{fill:#FFFFFF;}
</style>
<circle class="st0" cx="83" cy="83" r="83"/>
<path class="st0" d="M540.3,508.9H0c14.1-1.5,47.1-7,77.1-32.4c9.1-7.7,35.3-29.8,42.9-66.5c1-5,1.4-9.2,2.1-17.5
	c4.5-55.8-7.5-73,0.9-111.5c4.1-18.9,10.2-29.2,15.5-36c6.9-8.6,15.4-15.7,25.1-21c39.5-21.6,90.9-10.2,148.7-16.2
	c5.2-0.5,16.3-1.8,26.9-9.3c9.7-6.9,15.4-16.6,19.1-25.9c16.2-40.6-3.4-79,10.9-115.5c11.8-30.1,46-57.5,84.2-57.1
	c38,0.3,69.3,27.9,80.9,55.6c4.1,9.9,6.2,20.6,6,31.3C540.1,134,540.5,292.5,540.3,508.9z"/>
</svg>
